<svg xmlns="http://www.w3.org/2000/svg" xmlns:xlink="http://www.w3.org/1999/xlink" width="16px" height="16px" viewBox="0 0 16 16" version="1.1">
<g id="surface1">
<path style="fill:none;stroke-width:1;stroke-linecap:square;stroke-linejoin:miter;stroke:rgb(0%,0%,0%);stroke-opacity:1;stroke-miterlimit:4;" d="M 22.001953 12 C 22.001953 12 19.001953 18 12 18 C 4.998047 18 1.998047 12 1.998047 12 C 1.998047 12 4.998047 6 12 6 C 19.001953 6 22.001953 12 22.001953 12 Z M 22.001953 12 " transform="matrix(0.666667,0,0,0.666667,0,0)"/>
<path style="fill:none;stroke-width:1;stroke-linecap:square;stroke-linejoin:miter;stroke:rgb(0%,0%,0%);stroke-opacity:1;stroke-miterlimit:4;" d="M 15 12 C 15 10.341797 13.658203 9 12 9 C 10.341797 9 9 10.341797 9 12 C 9 13.658203 10.341797 15 12 15 C 13.658203 15 15 13.658203 15 12 Z M 15 12 " transform="matrix(0.666667,0,0,0.666667,0,0)"/>
<path style="fill:none;stroke-width:1;stroke-linecap:square;stroke-linejoin:miter;stroke:rgb(0%,0%,0%);stroke-opacity:1;stroke-miterlimit:4;" d="M 3 21 L 19.998047 4.001953 " transform="matrix(0.666667,0,0,0.666667,0,0)"/>
</g>
</svg>
